<?xml version="1.0" encoding="utf-8"?>
<!-- Generator: Adobe Illustrator 26.1.0, SVG Export Plug-In . SVG Version: 6.00 Build 0)  -->
<svg version="1.1" id="Layer_1" xmlns="http://www.w3.org/2000/svg" xmlns:xlink="http://www.w3.org/1999/xlink" x="0px" y="0px"
	 viewBox="0 0 800 800" style="enable-background:new 0 0 800 800;" xml:space="preserve">
<style type="text/css">
	.st0{fill-rule:evenodd;clip-rule:evenodd;fill:#001376;}
	.st1{fill:#C4D9F2;}
	.st2{clip-path:url(#SVGID_00000108998617646177867340000004677553700960732048_);}
	.st3{clip-path:url(#SVGID_00000047038873965876106680000001160769121236867479_);fill:#001376;}
	.st4{fill:#00BFB3;}
	.st5{fill:#182852;}
	.st6{fill-rule:evenodd;clip-rule:evenodd;fill:#004DE7;}
</style>
<g>
	<g>
		<path class="st0" d="M397.3,127.8l-254.6,46.8v215.8c0,254.9,247.8,346,250.3,346.9l4.2,1.5l4.2-1.5
			c2.5-0.9,250.4-89.6,250.4-346.9V174.6L397.3,127.8z"/>
	</g>
	<g>
		<g>
			<g>
				<polygon class="st1" points="364,544.8 294.9,571.3 384,678.9 492.1,569.5 431.4,544.8 				"/>
				<rect x="351.7" y="443.8" class="st1" width="89" height="157.8"/>
				<g>
					<defs>
						
							<rect id="SVGID_1_" x="351.5" y="440.4" transform="matrix(1 -4.406821e-03 4.406821e-03 1 -2.1441 1.7496)" width="89" height="94.1"/>
					</defs>
					<clipPath id="SVGID_00000039856161908551247610000005417413893399816627_">
						<use xlink:href="#SVGID_1_"  style="overflow:visible;"/>
					</clipPath>
					<g style="clip-path:url(#SVGID_00000039856161908551247610000005417413893399816627_);">
						<defs>
							
								<rect id="SVGID_00000173122328774368233830000012787009845598977185_" x="351.5" y="440.4" transform="matrix(1 -4.406821e-03 4.406821e-03 1 -2.1442 1.7496)" width="89" height="94.1"/>
						</defs>
						<clipPath id="SVGID_00000025401440281854981880000017744247007906822795_">
							<use xlink:href="#SVGID_00000173122328774368233830000012787009845598977185_"  style="overflow:visible;"/>
						</clipPath>
						<path style="clip-path:url(#SVGID_00000025401440281854981880000017744247007906822795_);fill:#001376;" d="M440.1,506.4
							l11.6-50l-86.7-20.1l-21.2,91.5C378.2,537.6,417.4,532.8,440.1,506.4"/>
					</g>
				</g>
				<path class="st1" d="M495.8,353.6l0,71.9c0,54.7-44.8,98.9-99.9,98.7c-55.2-0.2-99.8-44.8-99.8-99.5l0-71.9
					c0-10.4,2.1-20.2,5.8-29.2l7.8,24.7l0,0.1l9.3,29.6l154.2,0.6l10.5-33.5l6.5-20.7C493.7,333.3,495.8,343.2,495.8,353.6"/>
				<path class="st1" d="M311.1,408.2c-4.5-7.3-14.1-9.5-21.4-5.1c-7.3,4.5-9.6,14-5,21.3c4.5,7.3,14.1,9.6,21.4,5.1
					C313.4,425,315.6,415.4,311.1,408.2"/>
				<path class="st1" d="M507.1,408.2c-4.5-7.3-14.1-9.5-21.4-5.1c-7.3,4.5-9.6,14-5,21.3c4.5,7.3,14.1,9.6,21.4,5.1
					C509.3,425,511.6,415.4,507.1,408.2"/>
				<path class="st4" d="M490,324.3l-17,54.2l-154.2-0.6l-17-54.4c2.7-6.6,6.3-12.7,10.6-18.3c14.4-18.6,37-30.5,62.6-30.4L417,275
					c25.5,0.1,48.1,12.2,62.5,30.9C483.8,311.5,487.4,317.7,490,324.3"/>
				<path class="st4" d="M448.1,235.5c0,28.6-23.4,51.6-52.2,51.5c-28.8-0.1-52.1-23.4-52.1-52c0-28.6,23.3-51.6,52.2-51.5
					C424.8,183.7,448.1,206.9,448.1,235.5"/>
				<path class="st4" d="M495.8,353.6l0,28.4l-12.2-37l6.5-20.7C493.7,333.3,495.8,343.2,495.8,353.6"/>
				<path class="st4" d="M309.6,348.2L309.6,348.2l-13.5,40.7l0-36.1c0-10.4,2-20.2,5.7-29.2L309.6,348.2z"/>
			</g>
		</g>
		<path class="st5" d="M374.1,487.7c3.8,4.9,12.7,8.4,23.1,8.4c10.4,0,19.3-3.5,23.1-8.4"/>
	</g>
	<path class="st6" d="M525.3,581.5l-33.2-12c-15.9,20.5-54.4,35-99.4,35c-43.7,0-81.2-13.7-97.9-33.2L260,582.1
		c-14.2,4.4-29.4,13.2-43.2,23.9C290,699.3,391.4,736.6,393,737.2l4.2,1.5l4.2-1.5c1.6-0.5,97.4-34.9,170.1-122.3
		C559.6,599.8,543.7,588.1,525.3,581.5z"/>
</g>
</svg>
