<svg xmlns="http://www.w3.org/2000/svg" data-name="Component 9 – 1" width="247.6739959716797" height="106.5510025024414" style=""><rect id="backgroundrect" width="100%" height="100%" x="0" y="0" fill="none" stroke="none"/>
  <defs>
    <style>
      .cls-1 {
        fill: #00849b;
        stroke-linejoin: round;
        opacity: 0.8;
      }

      .cls-2 {
        fill: #f5f4f4;
        font-size: 50px;
        font-family: PalatinoLinotype-Bold, Palatino Linotype;
        font-weight: 700;
      }

      .cls-3, .cls-4 {
        stroke: none;
      }

      .cls-4 {
        fill: #707070;
      }
    </style>
  </defs>
  
  
<g class="currentLayer" style=""><title>Layer 1</title><g id="Path_178" data-name="Path 178" class="cls-1 selected" fill="#1352de" fill-opacity="1">
    <path class="cls-3" d="M 233.1047515869141 106.0507965087891 L 14.5690393447876 106.0507965087891 C 12.70341396331787 106.0507965087891 10.88932037353516 105.4669876098633 9.177132606506348 104.3156127929688 C 7.500570297241211 103.1881713867188 5.991007804870605 101.5680465698242 4.690413951873779 99.50023651123047 C 1.988195300102234 95.20398712158203 0.5000078082084656 89.48170471191406 0.5000078082084656 83.38755035400391 L 0.5000078082084656 23.1632022857666 C 0.5000078082084656 17.06904602050781 1.988195300102234 11.34679698944092 4.690413951873779 7.050546646118164 C 5.991007804870605 4.982765674591064 7.500570297241211 3.362640619277954 9.177132606506348 2.23520302772522 C 10.88932037353516 1.083828091621399 12.70341396331787 0.5000156164169312 14.5690393447876 0.5000156164169312 L 233.1047515869141 0.5000156164169312 C 234.9703826904297 0.5000156164169312 236.7845153808594 1.083828091621399 238.4966888427734 2.23520302772522 C 240.1732635498047 3.362640619277954 241.6828155517578 4.982765674591064 242.9834136962891 7.050546646118164 C 245.6856384277344 11.34679698944092 247.1738128662109 17.06904602050781 247.1738128662109 23.1632022857666 L 247.1738128662109 83.38755035400391 C 247.1738128662109 89.48170471191406 245.6856384277344 95.20398712158203 242.9834136962891 99.50023651123047 C 241.6828155517578 101.5680465698242 240.1732635498047 103.1881713867188 238.4966888427734 104.3156127929688 C 236.7845153808594 105.4669876098633 234.9703826904297 106.0507965087891 233.1047515869141 106.0507965087891 Z" id="svg_1" fill="#1352de" fill-opacity="1"/>
    <path class="cls-4" d="M 14.56904602050781 0.9999847412109375 C 11.03372192382812 0.9999847412109375 7.67572021484375 3.243331909179688 5.113662719726562 7.316764831542969 C 3.829315185546875 9.35870361328125 2.819198608398438 11.74326324462891 2.111282348632812 14.40414428710938 C 1.373916625976562 17.17595672607422 1.000015258789062 20.12295532226562 1.000015258789062 23.16320037841797 L 1.000015258789062 83.38754272460938 C 1.000015258789062 86.42782592773438 1.373916625976562 89.37480163574219 2.111282348632812 92.14663696289062 C 2.819198608398438 94.80751800537109 3.829315185546875 97.19204711914062 5.113662719726562 99.23401641845703 C 7.67572021484375 103.3074188232422 11.03372192382812 105.5507659912109 14.56904602050781 105.5507659912109 L 233.1047515869141 105.5507659912109 C 236.6401062011719 105.5507659912109 239.9980773925781 103.3074188232422 242.5601654052734 99.23401641845703 C 243.8445129394531 97.19204711914062 244.8546295166016 94.80751800537109 245.5625457763672 92.14663696289062 C 246.2999114990234 89.37480163574219 246.6738128662109 86.42782592773438 246.6738128662109 83.38754272460938 L 246.6738128662109 23.16320037841797 C 246.6738128662109 20.12295532226562 246.2999114990234 17.17595672607422 245.5625457763672 14.40414428710938 C 244.8546295166016 11.74326324462891 243.8445129394531 9.35870361328125 242.5601654052734 7.316764831542969 C 239.9980773925781 3.243331909179688 236.6401062011719 0.9999847412109375 233.1047515869141 0.9999847412109375 L 14.56904602050781 0.9999847412109375 M 14.56904602050781 -1.52587890625e-05 L 233.1047515869141 -1.52587890625e-05 C 241.1510314941406 -1.52587890625e-05 247.6738128662109 10.37051391601562 247.6738128662109 23.16320037841797 L 247.6738128662109 83.38754272460938 C 247.6738128662109 96.18026733398438 241.1510314941406 106.5507659912109 233.1047515869141 106.5507659912109 L 14.56904602050781 106.5507659912109 C 6.522796630859375 106.5507659912109 1.52587890625e-05 96.18026733398438 1.52587890625e-05 83.38754272460938 L 1.52587890625e-05 23.16320037841797 C 1.52587890625e-05 10.37051391601562 6.522796630859375 -1.52587890625e-05 14.56904602050781 -1.52587890625e-05 Z" id="svg_2" fill="#1352de" fill-opacity="1"/>
  </g><text id="Send" class="cls-2" y="72.04499816894531" x="65.1050033569336"><tspan x="65.1050033569336" y="72.04499816894531" id="svg_3">Send</tspan></text></g></svg>